<?xml version="1.0" encoding="utf-8"?>
<!-- Generator: Adobe Illustrator 17.0.0, SVG Export Plug-In . SVG Version: 6.00 Build 0)  -->
<!DOCTYPE svg PUBLIC "-//W3C//DTD SVG 1.1//EN" "http://www.w3.org/Graphics/SVG/1.1/DTD/svg11.dtd">
<svg version="1.1" id="Capa_1" xmlns="http://www.w3.org/2000/svg" xmlns:xlink="http://www.w3.org/1999/xlink" x="0px" y="0px"
	 width="168px" height="196.826px" viewBox="0 0 168 196.826" enable-background="new 0 0 168 196.826" xml:space="preserve">
<g>
	<path fill="#9D9D9D" d="M154.42,178.678c3.298,5.713,1.341,13.018-4.372,16.316l-0.096,0.056
		c-5.713,3.298-13.018,1.341-16.316-4.372l-24.056-41.665c-3.298-5.713-1.341-13.018,4.372-16.316l0.096-0.056
		c5.713-3.298,13.018-1.341,16.316,4.372L154.42,178.678z"/>
	<path fill="#9D9D9D" d="M14.58,178.678c-3.298,5.713-1.341,13.018,4.372,16.316l0.096,0.056c5.713,3.298,13.018,1.341,16.316-4.372
		l24.056-41.665c3.298-5.713,1.341-13.018-4.372-16.316l-0.096-0.056c-5.713-3.298-13.018-1.341-16.316,4.372L14.58,178.678z"/>
	<circle fill="#9D9D9D" cx="84.011" cy="36.011" r="36.011"/>
	<g>
		<path fill="#9D9D9D" d="M129.56,40.076c-1.83,3.17-0.744,7.223,2.426,9.053l0.053,0.031c3.17,1.83,7.223,0.744,9.053-2.426
			l13.348-23.119c1.83-3.17,0.744-7.223-2.426-9.053l-0.053-0.031c-3.17-1.83-7.223-0.744-9.053,2.426L129.56,40.076z"/>
		<path fill="#9D9D9D" d="M158.532,36.844c4.847-7.583,2.701-18.147-5.092-23.127s-18.28-2.492-23.127,5.092L158.532,36.844z"/>
	</g>
	<g>
		<path fill="#9D9D9D" d="M39.221,40.076c1.83,3.17,0.744,7.223-2.426,9.053l-0.053,0.031c-3.17,1.83-7.223,0.744-9.053-2.426
			L14.341,23.615c-1.83-3.17-0.744-7.223,2.426-9.053l0.053-0.031c3.17-1.83,7.223-0.744,9.053,2.426L39.221,40.076z"/>
		<path fill="#9D9D9D" d="M10.249,36.844c-4.847-7.583-2.701-18.147,5.092-23.127s18.28-2.492,23.127,5.092L10.249,36.844z"/>
	</g>
	<g>
		<circle fill="#DF582A" cx="84" cy="99.022" r="80"/>
		<path fill="#9D9D9D" d="M84,183.022c-46.318,0-84-37.683-84-84c0-46.318,37.682-84,84-84c46.317,0,84,37.682,84,84
			C168,145.34,130.317,183.022,84,183.022z M84,23.022c-41.907,0-76,34.093-76,76c0,41.906,34.093,76,76,76
			c41.906,0,76-34.094,76-76C160,57.116,125.906,23.022,84,23.022z"/>
	</g>
</g>
</svg>
