<?xml version="1.0" encoding="utf-8"?>
<!-- Generator: Adobe Illustrator 17.0.0, SVG Export Plug-In . SVG Version: 6.00 Build 0)  -->
<!DOCTYPE svg PUBLIC "-//W3C//DTD SVG 1.1//EN" "http://www.w3.org/Graphics/SVG/1.1/DTD/svg11.dtd">
<svg version="1.1" xmlns="http://www.w3.org/2000/svg" xmlns:xlink="http://www.w3.org/1999/xlink" x="0px" y="0px" width="168px"
	 height="42px" viewBox="0 0 168 42" enable-background="new 0 0 168 42" xml:space="preserve">
<g id="Capa_2">
</g>
<g id="Capa_1">
	<g>
		<g>
			<g opacity="0.6">
				<path fill="#FFFFFF" d="M50.576,29.767c0-0.451-0.01-0.82-0.037-1.181h0.703l0.046,0.721h0.018
					c0.217-0.415,0.722-0.82,1.442-0.82c0.604,0,1.541,0.361,1.541,1.857v2.604h-0.792v-2.514c0-0.703-0.261-1.289-1.01-1.289
					c-0.523,0-0.929,0.37-1.063,0.811c-0.037,0.1-0.054,0.234-0.054,0.37v2.622h-0.793V29.767z"/>
				<path fill="#FFFFFF" d="M59.519,30.731c0,1.613-1.117,2.316-2.172,2.316c-1.181,0-2.09-0.865-2.09-2.243
					c0-1.46,0.954-2.316,2.162-2.316C58.673,28.487,59.519,29.398,59.519,30.731z M56.058,30.777c0,0.955,0.55,1.676,1.326,1.676
					c0.757,0,1.324-0.712,1.324-1.694c0-0.739-0.37-1.676-1.306-1.676C56.465,29.082,56.058,29.947,56.058,30.777z M58.572,26.703
					l-1.099,1.289h-0.567l0.793-1.289H58.572z"/>
				<path fill="#FFFFFF" d="M60.516,29.767c0-0.451-0.01-0.82-0.037-1.181h0.695l0.035,0.703h0.027
					c0.244-0.414,0.65-0.802,1.37-0.802c0.594,0,1.045,0.361,1.235,0.875h0.018c0.135-0.244,0.307-0.433,0.488-0.568
					c0.261-0.198,0.55-0.307,0.964-0.307c0.577,0,1.432,0.378,1.432,1.893v2.568h-0.774v-2.469c0-0.838-0.306-1.342-0.946-1.342
					c-0.451,0-0.801,0.333-0.937,0.721c-0.037,0.108-0.064,0.253-0.064,0.397v2.694h-0.774v-2.614c0-0.694-0.307-1.198-0.911-1.198
					c-0.495,0-0.856,0.397-0.981,0.793c-0.045,0.117-0.064,0.253-0.064,0.388v2.631h-0.774V29.767z"/>
				<path fill="#FFFFFF" d="M68.906,27.361c0.01,0.271-0.19,0.487-0.505,0.487c-0.279,0-0.476-0.216-0.476-0.487
					c0-0.279,0.207-0.495,0.495-0.495C68.716,26.865,68.906,27.082,68.906,27.361z M68.023,32.948v-4.361h0.793v4.361H68.023z"/>
				<path fill="#FFFFFF" d="M70.131,29.767c0-0.451-0.01-0.82-0.037-1.181h0.703l0.046,0.721h0.018
					c0.217-0.415,0.722-0.82,1.442-0.82c0.604,0,1.541,0.361,1.541,1.857v2.604h-0.792v-2.514c0-0.703-0.261-1.289-1.01-1.289
					c-0.523,0-0.929,0.37-1.063,0.811c-0.037,0.1-0.054,0.234-0.054,0.37v2.622h-0.793V29.767z"/>
				<path fill="#FFFFFF" d="M77.542,32.948l-0.064-0.55h-0.027c-0.242,0.343-0.712,0.648-1.334,0.648
					c-0.883,0-1.334-0.621-1.334-1.252c0-1.055,0.937-1.631,2.622-1.622v-0.09c0-0.361-0.099-1.009-0.991-1.009
					c-0.406,0-0.83,0.126-1.136,0.324l-0.18-0.523c0.36-0.234,0.883-0.388,1.432-0.388c1.334,0,1.659,0.911,1.659,1.784v1.631
					c0,0.378,0.018,0.748,0.072,1.045H77.542z M77.425,30.722c-0.865-0.018-1.847,0.135-1.847,0.982
					c0,0.514,0.343,0.757,0.747,0.757c0.569,0,0.929-0.36,1.055-0.73c0.027-0.081,0.045-0.171,0.045-0.253V30.722z"/>
				<path fill="#FFFFFF" d="M81.691,28.587l0.577,2.217c0.126,0.487,0.244,0.937,0.323,1.388h0.027
					c0.1-0.442,0.244-0.911,0.389-1.379l0.712-2.226h0.666l0.676,2.18c0.163,0.523,0.288,0.982,0.389,1.424h0.025
					c0.073-0.442,0.19-0.901,0.335-1.415l0.621-2.19h0.784l-1.405,4.361h-0.722l-0.666-2.082c-0.153-0.487-0.28-0.919-0.387-1.433
					h-0.019c-0.108,0.523-0.244,0.973-0.397,1.442l-0.703,2.073h-0.72l-1.316-4.361H81.691z"/>
				<path fill="#FFFFFF" d="M88.352,30.911c0.018,1.073,0.703,1.514,1.496,1.514c0.567,0,0.91-0.1,1.208-0.225l0.135,0.568
					c-0.28,0.126-0.757,0.27-1.451,0.27c-1.343,0-2.144-0.883-2.144-2.199s0.774-2.352,2.046-2.352c1.424,0,1.802,1.253,1.802,2.055
					c0,0.162-0.018,0.288-0.027,0.369H88.352z M90.677,30.344c0.01-0.505-0.207-1.289-1.099-1.289c-0.801,0-1.153,0.739-1.216,1.289
					H90.677z"/>
				<path fill="#FFFFFF" d="M92.385,32.948c0.019-0.297,0.037-0.739,0.037-1.126V26.55h0.784v2.739h0.018
					c0.28-0.487,0.784-0.802,1.488-0.802c1.08,0,1.847,0.902,1.837,2.226c0,1.559-0.981,2.333-1.955,2.333
					c-0.631,0-1.136-0.243-1.459-0.82h-0.027l-0.037,0.721H92.385z M93.205,31.2c0,0.1,0.018,0.198,0.037,0.288
					c0.153,0.55,0.612,0.929,1.189,0.929c0.83,0,1.326-0.676,1.326-1.677c0-0.874-0.451-1.622-1.298-1.622
					c-0.54,0-1.045,0.37-1.208,0.973c-0.018,0.09-0.045,0.198-0.045,0.324V31.2z"/>
			</g>
			<g>
				<path fill="#FFFFFF" d="M50.855,23.945l6.393-14.76h1.541l6.478,14.76h-2.184l-1.899-4.347h-6.288l-1.877,4.347H50.855z
					 M55.719,17.699h4.6l-2.331-5.317L55.719,17.699z"/>
				<path fill="#FFFFFF" d="M72.4,22.753c-0.486,0.464-0.97,0.804-1.451,1.018c-0.481,0.215-1.001,0.322-1.557,0.322
					c-1.061,0-1.899-0.306-2.511-0.918c-0.612-0.612-0.918-1.449-0.918-2.511v-6.468h1.963v5.971c0,0.788,0.167,1.37,0.5,1.746
					c0.335,0.377,0.854,0.565,1.557,0.565c0.5,0,0.937-0.096,1.314-0.29c0.376-0.194,0.742-0.515,1.102-0.965v-7.027h1.941v9.749
					H72.4V22.753z"/>
				<path fill="#FFFFFF" d="M82.19,23.639c-0.303,0.169-0.628,0.294-0.975,0.374c-0.349,0.08-0.723,0.121-1.125,0.121
					c-1.096,0-1.869-0.26-2.315-0.781c-0.448-0.52-0.671-1.47-0.671-2.849v-4.621h-1.655v-0.19l3.408-3.766h0.221v2.268h3.048v1.688
					h-3.048v4.474c0,0.809,0.099,1.331,0.3,1.567c0.201,0.236,0.575,0.353,1.125,0.353c0.295,0,0.583-0.038,0.865-0.116
					c0.28-0.077,0.554-0.197,0.822-0.359V23.639z"/>
				<path fill="#FFFFFF" d="M83.128,19.06c0-1.414,0.503-2.613,1.509-3.598c1.007-0.985,2.234-1.477,3.683-1.477
					c0.682,0,1.334,0.128,1.956,0.386c0.623,0.257,1.181,0.624,1.673,1.102c0.499,0.506,0.878,1.062,1.139,1.666
					c0.26,0.605,0.39,1.245,0.39,1.921c0,0.668-0.134,1.318-0.401,1.952c-0.268,0.633-0.644,1.185-1.128,1.656
					c-0.492,0.486-1.047,0.852-1.662,1.098c-0.617,0.246-1.271,0.369-1.968,0.369c-1.45,0-2.677-0.492-3.683-1.477
					C83.632,21.673,83.128,20.474,83.128,19.06z M85.166,19.06c0,0.907,0.306,1.681,0.918,2.321c0.612,0.64,1.349,0.96,2.215,0.96
					c0.859,0,1.595-0.322,2.211-0.965c0.615-0.644,0.922-1.416,0.922-2.316c0-0.893-0.306-1.66-0.918-2.3
					c-0.612-0.64-1.351-0.961-2.216-0.961c-0.865,0-1.603,0.32-2.215,0.961C85.472,17.4,85.166,18.167,85.166,19.06z"/>
				<path fill="#FFFFFF" d="M113.682,16.707v6.246c-0.97,0.422-1.89,0.737-2.758,0.944c-0.87,0.208-1.697,0.311-2.485,0.311
					c-0.886,0-1.719-0.109-2.5-0.327c-0.781-0.218-1.499-0.542-2.152-0.971c-1.098-0.718-1.95-1.634-2.559-2.748
					c-0.609-1.114-0.913-2.333-0.913-3.656c0-0.992,0.201-1.954,0.602-2.886c0.4-0.932,0.97-1.746,1.708-2.442
					c0.781-0.752,1.66-1.311,2.638-1.678c0.977-0.366,2.071-0.548,3.28-0.548c0.824,0,1.647,0.098,2.474,0.296
					c0.827,0.197,1.673,0.492,2.538,0.886v2.289c-0.935-0.507-1.815-0.881-2.638-1.123c-0.822-0.243-1.62-0.364-2.395-0.364
					c-1.724,0-3.148,0.536-4.273,1.608c-1.125,1.073-1.687,2.418-1.687,4.036c0,1.597,0.554,2.931,1.666,4.004
					c1.11,1.072,2.508,1.608,4.189,1.608c0.507,0,1.013-0.054,1.518-0.163c0.507-0.109,1.031-0.276,1.572-0.501V18.67h-2.774v-1.963
					H113.682z"/>
				<path fill="#FFFFFF" d="M124.623,22.911c-0.647,0.415-1.313,0.726-1.998,0.934c-0.687,0.208-1.396,0.311-2.127,0.311
					c-1.541,0-2.769-0.476-3.687-1.43c-0.918-0.953-1.378-2.224-1.378-3.814c0-1.455,0.441-2.638,1.326-3.545
					c0.883-0.907,2.035-1.361,3.454-1.361c1.407,0,2.522,0.46,3.346,1.382c0.822,0.922,1.233,2.166,1.233,3.734v0.285h-7.3
					c0.056,0.922,0.358,1.64,0.907,2.157c0.55,0.517,1.284,0.776,2.205,0.776c0.62,0,1.265-0.115,1.937-0.343
					c0.671-0.228,1.365-0.574,2.082-1.039V22.911z M117.492,18.026h5.159c-0.064-0.711-0.32-1.28-0.77-1.709
					c-0.451-0.429-1.013-0.644-1.689-0.644c-0.746,0-1.346,0.199-1.803,0.597C117.931,16.667,117.632,17.253,117.492,18.026z"/>
				<path fill="#FFFFFF" d="M125.974,23.281v-2.079c0.585,0.387,1.147,0.683,1.689,0.887s1.037,0.306,1.488,0.306
					c0.499,0,0.891-0.093,1.176-0.28s0.427-0.441,0.427-0.765c0-0.408-0.531-0.875-1.593-1.404
					c-0.309-0.155-0.548-0.277-0.717-0.369c-0.907-0.464-1.529-0.913-1.867-1.345c-0.338-0.433-0.507-0.961-0.507-1.588
					c0-0.816,0.292-1.463,0.876-1.941c0.583-0.478,1.384-0.718,2.406-0.718c0.548,0,1.075,0.065,1.582,0.195
					c0.507,0.131,1.002,0.332,1.488,0.607v1.899c-0.599-0.331-1.146-0.575-1.641-0.734c-0.495-0.158-0.965-0.237-1.408-0.237
					c-0.408,0-0.723,0.071-0.945,0.211c-0.221,0.141-0.331,0.345-0.331,0.612c0,0.493,0.679,1.073,2.036,1.741l0.178,0.084
					c1.063,0.535,1.756,1.004,2.079,1.408c0.323,0.405,0.484,0.916,0.484,1.535c0,0.858-0.322,1.544-0.965,2.058
					c-0.642,0.513-1.496,0.77-2.557,0.77c-0.613,0-1.195-0.07-1.746-0.21C127.052,23.783,126.509,23.569,125.974,23.281z"/>
				<path fill="#FFFFFF" d="M140.112,23.639c-0.303,0.169-0.628,0.294-0.975,0.374c-0.349,0.08-0.723,0.121-1.125,0.121
					c-1.096,0-1.869-0.26-2.315-0.781c-0.448-0.52-0.671-1.47-0.671-2.849v-4.621h-1.655v-0.19l3.408-3.766H137v2.268h3.048v1.688
					H137v4.474c0,0.809,0.099,1.331,0.3,1.567c0.201,0.236,0.575,0.353,1.125,0.353c0.295,0,0.583-0.038,0.865-0.116
					c0.28-0.077,0.554-0.197,0.822-0.359V23.639z"/>
				<path fill="#FFFFFF" d="M141.621,11.327c0-0.31,0.105-0.57,0.317-0.781c0.21-0.211,0.47-0.317,0.781-0.317
					c0.309,0,0.569,0.106,0.781,0.317c0.21,0.21,0.315,0.471,0.315,0.781c0,0.309-0.105,0.57-0.315,0.781
					c-0.212,0.211-0.472,0.316-0.781,0.316c-0.311,0-0.57-0.105-0.781-0.316C141.726,11.897,141.621,11.636,141.621,11.327z
					 M141.748,23.945v-9.749h1.941v9.749H141.748z"/>
				<path fill="#FFFFFF" d="M145.607,19.06c0-1.414,0.503-2.613,1.509-3.598c1.007-0.985,2.234-1.477,3.683-1.477
					c0.682,0,1.334,0.128,1.956,0.386c0.623,0.257,1.181,0.624,1.673,1.102c0.499,0.506,0.878,1.062,1.139,1.666
					c0.26,0.605,0.39,1.245,0.39,1.921c0,0.668-0.134,1.318-0.401,1.952c-0.268,0.633-0.644,1.185-1.128,1.656
					c-0.492,0.486-1.047,0.852-1.662,1.098c-0.617,0.246-1.271,0.369-1.968,0.369c-1.45,0-2.677-0.492-3.683-1.477
					C146.11,21.673,145.607,20.474,145.607,19.06z M147.644,19.06c0,0.907,0.306,1.681,0.918,2.321
					c0.612,0.64,1.349,0.96,2.215,0.96c0.859,0,1.595-0.322,2.211-0.965c0.615-0.644,0.922-1.416,0.922-2.316
					c0-0.893-0.306-1.66-0.918-2.3c-0.612-0.64-1.351-0.961-2.216-0.961c-0.865,0-1.603,0.32-2.215,0.961
					C147.95,17.4,147.644,18.167,147.644,19.06z M149.352,12.814l2.205-3.672h1.878l-2.965,3.672H149.352z"/>
				<path fill="#FFFFFF" d="M157.804,23.945v-9.749h1.941v1.193c0.486-0.464,0.969-0.804,1.451-1.018
					c0.481-0.215,1.001-0.322,1.557-0.322c1.055,0,1.886,0.306,2.495,0.918c0.609,0.612,0.913,1.452,0.913,2.521v6.457h-1.942
					v-5.961c0-0.788-0.167-1.37-0.5-1.746c-0.335-0.376-0.854-0.565-1.557-0.565c-0.5,0-0.938,0.097-1.314,0.291
					c-0.376,0.194-0.744,0.511-1.102,0.954v7.027H157.804z"/>
			</g>
		</g>
		<g>
			<g>
				<path opacity="0.2" fill="#E58F22" d="M35.992,31.978c0,2.438-1.976,4.415-4.415,4.415H9.621c-2.438,0-4.415-1.976-4.415-4.415
					V10.022c0-2.438,1.976-4.415,4.415-4.415h21.957c2.438,0,4.415,1.976,4.415,4.415V31.978z"/>
				<path opacity="0.4" fill="#DC4410" d="M36.632,10.98c2.253,0.933,3.322,3.515,2.389,5.768l-8.402,20.285
					c-0.933,2.253-3.515,3.322-5.768,2.389L4.566,31.02c-2.253-0.933-3.322-3.515-2.389-5.768l8.402-20.285
					c0.933-2.253,3.515-3.322,5.768-2.389L36.632,10.98z"/>
				<path opacity="0.8" fill="#FFFFFF" d="M39.022,25.252c0.933,2.253-0.137,4.835-2.389,5.768l-20.285,8.402
					c-2.253,0.933-4.835-0.137-5.768-2.389L2.177,16.748c-0.933-2.253,0.137-4.835,2.389-5.768l20.285-8.402
					c2.253-0.933,4.835,0.137,5.768,2.389L39.022,25.252z"/>
			</g>
			<g>
				<g>
					<path fill="#E58F22" d="M13.527,12.003h5.716l6.729,17.773h-5.066l-1.263-3.765h-6.842l-1.326,3.765h-4.69L13.527,12.003z
						 M16.291,15.968l-2.301,6.666h4.528L16.291,15.968z"/>
				</g>
				<g>
					<path fill="#DC4410" d="M34.079,14.168l-0.367,3.284c-0.646-0.364-1.321-0.636-2.026-0.818
						c-0.705-0.182-1.429-0.273-2.171-0.273c-1.729,0-3.093,0.479-4.091,1.436c-0.998,0.957-1.497,2.264-1.497,3.918
						c0,1.596,0.445,2.865,1.336,3.807c0.891,0.943,2.089,1.414,3.595,1.414c0.319,0,0.612-0.015,0.879-0.045
						c0.267-0.03,0.519-0.074,0.757-0.134v-3.306h-2.438v-2.983h6.356v8.816c-0.831,0.238-1.696,0.416-2.594,0.534
						c-0.898,0.119-1.818,0.178-2.761,0.178c-3.08,0-5.419-0.694-7.018-2.082c-1.599-1.388-2.399-3.414-2.399-6.078
						c0-2.664,0.811-4.736,2.432-6.217c1.621-1.48,3.898-2.221,6.829-2.221c0.876,0,1.746,0.065,2.61,0.195
						C32.377,13.724,33.233,13.915,34.079,14.168z"/>
				</g>
				<path fill="#E58F22" d="M21.858,27.915c1.008,0.875,2.311,1.473,3.908,1.797l-4.895-12.929c-0.94,1.342-1.411,3.027-1.411,5.055
					C19.459,24.501,20.259,26.527,21.858,27.915z"/>
			</g>
		</g>
	</g>
</g>
</svg>
